<?xml version="1.0"?>
<svg xmlns="http://www.w3.org/2000/svg" xmlns:xlink="http://www.w3.org/1999/xlink" version="1.1" viewBox="0 0 192 192" width="90px" height="90px"><g fill="none" fill-rule="nonzero" stroke="none" stroke-width="1" stroke-linecap="butt" stroke-linejoin="miter" stroke-miterlimit="10" stroke-dasharray="" stroke-dashoffset="0" font-family="none" font-weight="none" font-size="none" text-anchor="none" style="mix-blend-mode: normal"><path d="M0,192v-192h192v192z" fill="none"/><g fill="#ffffff"><path d="M19.2,44.8c-2.30807,-0.03264 -4.45492,1.18 -5.61848,3.17359c-1.16356,1.99358 -1.16356,4.45924 0,6.45283c1.16356,1.99358 3.31041,3.20623 5.61848,3.17359h153.6c2.30807,0.03264 4.45492,-1.18 5.61848,-3.17359c1.16356,-1.99358 1.16356,-4.45924 0,-6.45283c-1.16356,-1.99358 -3.31041,-3.20623 -5.61848,-3.17359zM19.2,89.6c-2.30807,-0.03264 -4.45492,1.18 -5.61848,3.17359c-1.16356,1.99358 -1.16356,4.45924 0,6.45283c1.16356,1.99358 3.31041,3.20623 5.61848,3.17359h153.6c2.30807,0.03264 4.45492,-1.18 5.61848,-3.17359c1.16356,-1.99358 1.16356,-4.45924 0,-6.45283c-1.16356,-1.99358 -3.31041,-3.20623 -5.61848,-3.17359zM19.2,134.4c-2.30807,-0.03264 -4.45492,1.18 -5.61848,3.17359c-1.16356,1.99358 -1.16356,4.45924 0,6.45283c1.16356,1.99358 3.31041,3.20623 5.61848,3.17359h153.6c2.30807,0.03264 4.45492,-1.18 5.61848,-3.17359c1.16356,-1.99358 1.16356,-4.45924 0,-6.45283c-1.16356,-1.99358 -3.31041,-3.20623 -5.61848,-3.17359z"/></g></g></svg>
